<svg width="87" height="82" viewBox="0 0 87 82" fill="none" xmlns="http://www.w3.org/2000/svg">
<g clip-path="url(#clip0_11_47)">
<path d="M76.125 15.375C76.125 14.0158 75.5521 12.7122 74.5324 11.7511C73.5127 10.79 72.1296 10.25 70.6875 10.25C69.2454 10.25 67.8623 10.79 66.8426 11.7511C65.8229 12.7122 65.25 14.0158 65.25 15.375C65.25 16.7342 65.8229 18.0378 66.8426 18.9989C67.8623 19.96 69.2454 20.5 70.6875 20.5C72.1296 20.5 73.5127 19.96 74.5324 18.9989C75.5521 18.0378 76.125 16.7342 76.125 15.375ZM54.375 15.375C54.375 11.2973 56.0936 7.3866 59.1528 4.50323C62.212 1.61986 66.3612 0 70.6875 0C75.0138 0 79.163 1.61986 82.2222 4.50323C85.2814 7.3866 87 11.2973 87 15.375C87 19.4527 85.2814 23.3634 82.2222 26.2468C79.163 29.1301 75.0138 30.75 70.6875 30.75C66.3612 30.75 62.212 29.1301 59.1528 26.2468C56.0936 23.3634 54.375 19.4527 54.375 15.375ZM24.4688 10.25C19.9658 10.25 16.3125 13.6934 16.3125 17.9375V44.2832C16.3125 47.0539 15.1061 49.3922 13.7127 51.0898C11.9285 53.268 10.875 55.9746 10.875 58.9375C10.875 66.0164 16.9582 71.75 24.4688 71.75C31.9793 71.75 38.0625 66.0164 38.0625 58.9375C38.0625 55.9746 37.009 53.268 35.2248 51.1059C33.8314 49.4082 32.625 47.0699 32.625 44.2992V17.9375C32.625 13.6934 28.9717 10.25 24.4688 10.25ZM5.4375 17.9375C5.4375 8.03984 13.9506 0 24.4688 0C34.9869 0 43.5 8.02383 43.5 17.9375V44.2832C43.5 44.2992 43.517 44.3312 43.534 44.3793C43.568 44.4754 43.6699 44.6355 43.8228 44.8277C47.0344 48.7355 48.9375 53.6363 48.9375 58.9375C48.9375 71.6699 37.9775 82 24.4688 82C10.96 82 0 71.6699 0 58.9375C0 53.6203 1.90313 48.7195 5.11465 44.8277C5.26758 44.6355 5.36953 44.4754 5.40352 44.3793C5.42051 44.3312 5.4375 44.2992 5.4375 44.2832V17.9375ZM32.625 58.9375C32.625 63.1816 28.9717 66.625 24.4688 66.625C19.9658 66.625 16.3125 63.1816 16.3125 58.9375C16.3125 55.5902 18.5895 52.7395 21.75 51.6824V43.5625C21.75 42.1531 22.9734 41 24.4688 41C25.9641 41 27.1875 42.1531 27.1875 43.5625V51.6824C30.348 52.7395 32.625 55.5902 32.625 58.9375Z" fill="#CB8B67"/>
</g>
<defs>
<clipPath id="clip0_11_47">
<rect width="87" height="82" fill="white"/>
</clipPath>
</defs>
</svg>
