<svg width="106" height="106" viewBox="0 0 106 106" fill="none" xmlns="http://www.w3.org/2000/svg">
<path d="M34.2071 86.125H71.7532C72.5924 86.1253 73.4003 86.4441 74.0136 87.0171C74.6268 87.59 74.9997 88.3744 75.0569 89.2117C75.1142 90.049 74.8514 90.8769 74.3218 91.5279C73.7921 92.179 73.0351 92.6047 72.2037 92.7191L71.7532 92.75H34.2071C33.3678 92.7498 32.5599 92.4309 31.9467 91.858C31.3334 91.285 30.9605 90.5006 30.9033 89.6633C30.8461 88.826 31.1089 87.9982 31.6385 87.3471C32.1681 86.6961 32.9251 86.2703 33.7566 86.1559L34.2071 86.125ZM20.9792 72.9633H85.0208C85.8549 72.9712 86.6552 73.2933 87.2621 73.8655C87.869 74.4376 88.2377 75.2176 88.2946 76.0498C88.3515 76.8819 88.0923 77.7048 87.569 78.3543C87.0456 79.0037 86.2965 79.4318 85.4713 79.553L85.0208 79.5839H20.9792C20.1399 79.5837 19.332 79.2648 18.7188 78.6919C18.1055 78.1189 17.7326 77.3345 17.6754 76.4972C17.6182 75.6599 17.8809 74.8321 18.4106 74.181C18.9402 73.53 19.6972 73.1042 20.5287 72.9898L20.9792 72.9589V72.9633ZM53 13.2677C66.992 13.2677 74.9332 22.5294 76.0859 33.7168H76.4392C78.5788 33.7134 80.6981 34.1315 82.676 34.9475C84.6539 35.7635 86.4516 36.9612 87.9664 38.4723C89.4812 39.9834 90.6833 41.7782 91.5041 43.7541C92.3249 45.73 92.7483 47.8482 92.75 49.9878C92.7471 52.1267 92.3229 54.244 91.5016 56.2189C90.6803 58.1938 89.4779 59.9875 87.9633 61.4976C86.4486 63.0078 84.6513 64.2047 82.674 65.0202C80.6967 65.8356 78.5781 66.2535 76.4392 66.25H29.5607C27.4219 66.2535 25.3033 65.8356 23.326 65.0202C21.3487 64.2047 19.5514 63.0078 18.0367 61.4976C16.5221 59.9875 15.3197 58.1938 14.4984 56.2189C13.6771 54.244 13.2529 52.1267 13.25 49.9878C13.2523 47.8486 13.6761 45.7308 14.4972 43.7554C15.3182 41.78 16.5204 39.9858 18.0352 38.4752C19.5499 36.9646 21.3474 35.7672 23.325 34.9515C25.3026 34.1358 27.4215 33.7178 29.5607 33.7213H29.9141C31.0712 22.4588 39.0036 13.2721 53 13.2721V13.2677Z" fill="#9792D7"/>
</svg>
