<svg width="93" height="93" viewBox="0 0 93 93" fill="none" xmlns="http://www.w3.org/2000/svg">
<path d="M46.5 8.71875C37.1215 8.71875 28.9375 15.2811 26.7462 24.2498C24.9528 24.9485 23.3148 25.994 21.926 27.3265C20.5371 28.659 19.4247 30.2523 18.6523 32.0153C8.49206 31.2654 0 39.3942 0 49.4063C0 59.023 7.82072 66.8438 17.4375 66.8438V61.0313C11.0234 61.0313 5.8125 55.8203 5.8125 49.4063C5.8125 42.9922 11.0234 37.7813 17.4375 37.7813C18.2425 37.7813 19.0824 37.883 20.0037 38.0864L22.8402 38.7345L23.4796 35.8864C23.8387 34.2993 24.635 32.8445 25.7784 31.6868C26.9217 30.529 28.3665 29.7146 29.9489 29.3357L31.867 28.8823L32.1518 26.9293C33.1836 19.8555 39.3593 14.5313 46.5 14.5313C49.19 14.5264 51.8281 15.2717 54.1178 16.6835C56.4075 18.0954 58.2582 20.1177 59.4619 22.5234L60.6098 24.7932L63.0191 23.9533C64.3792 23.4883 65.6289 23.25 66.8438 23.25C73.2578 23.25 78.4688 28.4609 78.4688 34.875C78.4688 34.9913 78.4455 35.0901 78.4222 35.1947C78.4019 35.3981 78.3787 35.6016 78.3641 35.7934L78.1839 37.8859L80.1137 38.7113C82.2139 39.6007 84.0051 41.0897 85.2634 42.992C86.5216 44.8944 87.1909 47.1255 87.1875 49.4063C87.1875 55.8203 81.9766 61.0313 75.5625 61.0313H68.1719C69.6967 62.7223 70.8729 64.6975 71.6333 66.8438H75.5625C85.1793 66.8438 93 59.0318 93 49.4063C92.9996 46.3425 92.1926 43.3329 90.66 40.6801C89.1275 38.0272 86.9235 35.8246 84.2696 34.2938C84.1131 29.7745 82.2093 25.4922 78.9591 22.3482C75.7089 19.2042 71.3657 17.4438 66.8438 17.4375C65.7103 17.4375 64.5856 17.5625 63.4376 17.8008C61.5868 15.0033 59.0703 12.709 56.1141 11.1239C53.1579 9.53872 49.8544 8.7123 46.5 8.71875ZM45.0469 34.875C41.7425 34.875 38.7694 36.4734 36.9181 38.9379L41.5623 42.4254C41.9669 41.8836 42.4929 41.4442 43.0981 41.1424C43.7032 40.8406 44.3706 40.6848 45.0469 40.6875C47.4881 40.6875 49.4062 42.6056 49.4062 45.0469C49.4062 47.4881 47.4881 49.4063 45.0469 49.4063H26.1562V55.2188H45.0469C50.6327 55.2188 55.2188 50.6327 55.2188 45.0469C55.2188 39.4611 50.6327 34.875 45.0469 34.875ZM23.25 61.0313V66.8438H31.9688C33.6137 66.8438 34.875 68.1051 34.875 69.75C34.875 71.3949 33.6137 72.6563 31.9688 72.6563C31.4591 72.6595 30.9579 72.5265 30.517 72.271C30.076 72.0155 29.7113 71.6468 29.4607 71.2031L24.4328 74.1443C25.2063 75.4565 26.3076 76.5451 27.6288 77.3033C28.95 78.0614 30.4455 78.4631 31.9688 78.4688C36.7495 78.4688 40.6875 74.5308 40.6875 69.75C40.6751 68.7569 40.4902 67.7735 40.1411 66.8438H55.2188C58.465 66.8438 61.0312 69.41 61.0312 72.6563C61.0312 75.9025 58.465 78.4688 55.2188 78.4688C54.0151 78.469 52.8411 78.0956 51.8588 77.4001C50.8765 76.7046 50.1343 75.7213 49.7347 74.586L44.2535 76.5157C45.054 78.785 46.5383 80.7503 48.5021 82.141C50.4658 83.5318 52.8124 84.2795 55.2188 84.2813C61.6125 84.2813 66.8438 79.05 66.8438 72.6563C66.8438 66.2625 61.6125 61.0313 55.2188 61.0313H23.25Z" fill="#3CB5C6"/>
</svg>
